# xmcd
#
# Track frame offsets: 
#        150
#        14726
#        26063
#        37671
#        51338
#        66131
#        81408
#        93341
#        107917
#        122403
#        135392
#        149001
#        162062
#        175384
#        190778
#        203833
#        215433
#        229756
#        242746
#        251054
#        265042
#        277944
#        291427
#        303690
#        317870
#
# Disc length: 4426 seconds
#
# Revision: 0
# Processed by: cddbd v1.5.2PL0 Copyright (c) Steve Scherf et al.
# Submitted via: ExactAudioCopy v1.0b3
#
DISCID=73114819
DTITLE=Various Artist - Drunk and Nutty - Hillbillies Foolin' With The Blues [D
DTITLE=isc 2]
DYEAR=2002
DGENRE=Hillbilly
TTITLE0=McGee, Sam - Railroad Blues
TTITLE1=Dixon Brothers - Weave Room Blues
TTITLE2=Allen Brothers - Jake Walk Blues
TTITLE3=Boggs, Dock - Country Blues
TTITLE4=Carolina Tar Heels - Farm Land Blues
TTITLE5=Smith, Slim - Bread Line Blues
TTITLE6=Daffan, Ted - Blue Steel Blues
TTITLE7=Carlisle, Bill - Bell Clappin' Mama
TTITLE8=McCarn, Dave and Howard Long - Bay Rum Blues
TTITLE9=Foster, Gwen - Wilkes County Blues
TTITLE10=Carter Family - Coal Miner's Blues
TTITLE11=Nelstone's Hawaiians - Mobile Blues
TTITLE12=Delmore Brothers - Lonesome Jailhouse Blues
TTITLE13=Prince Albert Hunt - Blues In A Bottle
TTITLE14=Newman, Roy - Garbage Man Blues
TTITLE15=Marvin, Frankie - Barber's Blues
TTITLE16=Crackers, Georgia - Stockade Blues
TTITLE17=Ashley's Melody Men - Bath House Blues
TTITLE18=Wills, Bob - Frankie Jean
TTITLE19=Autry, Gene - Black Bottom Blues
TTITLE20=Prairie Ramblers - Jug Rag
TTITLE21=Puckett, Riley - Chain Gang Blues
TTITLE22=Glosson, Lonnie - Arkansas Hard Luck Blues
TTITLE23=Bruner, Cliff - Milk Cow Blues
TTITLE24=Jones, Buddy - Mean Old Lonesome Blues
EXTD=
EXTT0=
EXTT1=
EXTT2=
EXTT3=
EXTT4=
EXTT5=
EXTT6=
EXTT7=
EXTT8=
EXTT9=
EXTT10=
EXTT11=
EXTT12=
EXTT13=
EXTT14=
EXTT15=
EXTT16=
EXTT17=
EXTT18=
EXTT19=
EXTT20=
EXTT21=
EXTT22=
EXTT23=
EXTT24=
PLAYORDER=
